<svg width="39" height="46" viewBox="0 0 39 46" fill="none" xmlns="http://www.w3.org/2000/svg">
<path d="M38.9554 20.5926C38.9027 16.2157 36.7079 13.0099 32.7165 11.4955C30.547 10.6698 29.6013 9.56823 28.9251 7.39663C27.3749 2.41732 22.2208 -0.586279 17.1677 0.0961643C12.4391 0.728056 8.72567 4.23716 7.75045 9.04796C7.51665 10.2149 7.13964 10.9942 5.9222 11.5903C2.09715 13.4628 -0.0281159 16.5275 0.0245417 20.9486C0.0793057 25.6288 0.161433 30.3132 0.00556648 34.9871C-0.171363 40.2086 3.89591 44.3918 8.43079 45.2785C12.081 45.9904 15.786 45.4028 18.164 45.5565C22.5873 45.5565 25.7046 45.6471 28.8198 45.5355C34.1003 45.3459 38.8501 40.9016 38.9301 36.0571C39.0186 30.8988 39.0186 25.7425 38.9554 20.5926ZM10.9878 9.16171C11.5062 7.482 12.5579 6.01695 13.9835 4.98849C15.4092 3.96003 17.1311 3.42416 18.8886 3.46204C22.3261 3.53576 25.3908 6.03595 26.307 9.39762C26.5408 10.257 26.2354 10.3792 25.5361 10.3771C23.2192 10.3644 20.9022 10.3771 18.5979 10.3771C16.3821 10.3771 14.1747 10.3497 11.9483 10.3918C10.9942 10.4044 10.6761 10.1685 10.9878 9.16171ZM35.3304 35.1345C35.2251 39.8379 31.438 42.098 28.1479 42.1401C25.2244 42.1759 22.2945 42.1401 19.3667 42.1401V42.117C16.4867 42.117 13.6081 42.117 10.7309 42.117C7.15016 42.117 3.53784 39.2755 3.6916 34.8692C3.86011 30.012 3.72109 25.1464 3.77586 20.283C3.81798 16.7802 6.30342 13.9999 9.8041 13.7787C16.2578 13.3722 22.7221 13.2037 29.1821 13.7577C32.7039 14.0589 35.183 16.8581 35.2693 20.4094C35.3831 25.3213 35.4505 30.2226 35.3304 35.1345Z" fill="white"/>
<path d="M30.1001 27.7033C29.9126 30.7174 28.9458 33.4366 26.7806 35.6125C25.7189 36.6948 24.4493 37.5513 23.0481 38.1305C21.6469 38.7096 20.1431 38.9995 18.6271 38.9825C12.7484 38.9825 7.46365 33.4387 7.68692 27.52C7.72272 26.509 8.12923 25.8603 9.1213 25.7549C10.2734 25.637 10.7537 26.4395 10.8295 27.4126C11.0085 29.6053 11.6952 31.5578 13.2644 33.1438C15.5434 35.4418 18.25 36.1222 21.3084 35.1133C24.4173 34.0854 26.1739 31.8443 26.7616 28.6553C26.8374 28.2341 26.8669 27.8128 26.9343 27.3915C27.0965 26.4016 27.5662 25.637 28.6826 25.7634C29.7694 25.8855 30.1633 26.6986 30.1001 27.7033Z" fill="white"/>
<path d="M33.1816 27.8633C33.0552 28.531 32.8615 29.2177 31.9558 29.0976C31.128 28.9881 31.3239 28.3267 31.3239 27.777C31.3239 25.8813 30.6456 24.7797 29.2176 24.3627C27.7895 23.9456 26.591 24.5964 25.6368 26.3573C25.2851 27.0103 24.8301 27.3389 24.1751 27.0124C23.5621 26.707 23.6443 26.134 23.8528 25.538C24.1837 24.576 24.8098 23.7432 25.6419 23.158C26.474 22.5729 27.4696 22.2655 28.4867 22.2795C31.4229 22.2753 33.7293 25.0135 33.1816 27.8633Z" fill="white"/>
</svg>
